# xmcd CD database file
#
# Track frame offsets:
#	182
#	9757
#	20697
#	32295
#	43145
#	57597
#	67020
#	76525
#	89710
#	99287
#	112110
#	121532
#	131132
#	144472
#	155712
#	165470
#	178312
#	188787
#	201037
#	211867
#	222807
#	234327
#	247587
#	261972
#
# Disc length: 3656 seconds
#
# Revision: 0
# Processed by: cddbd v1.4PL0 Copyright (c) Steve Scherf et al.
# Submitted via: CDex 1.50
#
DISCID=430e4618
DTITLE=Lonesome Sundown - I´m A Mojo Man
DYEAR=1900
DGENRE=Blues
TTITLE0=I´m Gonna Stick To You Baby
TTITLE1=I´m A Mojo Man
TTITLE2=I Stood By
TTITLE3=Don´t Let Go
TTITLE4=Lonely Lonely Me
TTITLE5=You Know I Love You
TTITLE6=Learn To Treat Me Better
TTITLE7=Lonesome Lonely Blues
TTITLE8=I´m Glad She´s Mine
TTITLE9=Sundown Blues
TTITLE10=My Home Ain´t Here
TTITLE11=What You Wanna Do It For
TTITLE12=I Woke Up Cryin´ (Oh What A Dream)
TTITLE13=When I Had I Didn´t Need (Now I Need, Don´t Have A Dime)
TTITLE14=I´m A Samplin´ Man
TTITLE15=Hoo Doo Woman Blues
TTITLE16=I´m A Young Man
TTITLE17=It´s Easy When You Know How
TTITLE18=I Got A Broken Heart
TTITLE19=Don´t Say A Word
TTITLE20=Lost Without Love
TTITLE21=Leave My Money Alone
TTITLE22=My Home Is A Prison
TTITLE23=Lonesome Whistler
EXTD=
EXTT0=
EXTT1=
EXTT2=
EXTT3=
EXTT4=
EXTT5=
EXTT6=
EXTT7=
EXTT8=
EXTT9=
EXTT10=
EXTT11=
EXTT12=
EXTT13=
EXTT14=
EXTT15=
EXTT16=
EXTT17=
EXTT18=
EXTT19=
EXTT20=
EXTT21=
EXTT22=
EXTT23=
PLAYORDER=
